<?xml version="1.0" encoding="UTF-8" standalone="no"?>
<!DOCTYPE svg PUBLIC "-//W3C//DTD SVG 1.1//EN" "http://www.w3.org/Graphics/SVG/1.1/DTD/svg11.dtd">
<svg width="100%" height="100%" viewBox="0 0 415 176" version="1.1" xmlns="http://www.w3.org/2000/svg" xmlns:xlink="http://www.w3.org/1999/xlink" xml:space="preserve" xmlns:serif="http://www.serif.com/" style="fill-rule:evenodd;clip-rule:evenodd;stroke-linejoin:round;stroke-miterlimit:2;">
    <path id="Telefono" d="M85.98,7.9L24.81,7.9C15.66,7.9 10.08,16.84 10.08,22.67L10.08,152.97C10.08,162.56 16.77,168.65 25.81,168.65L85.69,168.65C95.62,168.65 100.72,161.91 100.72,154.81L100.72,22.71C100.72,14.11 93.98,7.94 85.98,7.94L85.98,7.9ZM49.94,18.28L58.77,18.28C60.85,18.28 61.14,18.28 61.14,19.72C61.14,20.98 60.29,21.39 58.77,21.39L50.77,21.39C49.21,21.39 48.31,20.91 48.31,19.72C48.31,18.53 48.63,18.28 49.94,18.28ZM61.96,157.78L48.31,157.78C46.22,157.78 45.21,157.1 45.21,155.56C45.21,154.02 46.06,153.32 47.61,153.32L61.96,153.32C63.75,153.32 64.42,154.06 64.42,155.56C64.42,157.06 63.51,157.78 61.96,157.78ZM92.81,140.72C92.81,145.85 89.16,147.01 86.12,147.01L23.76,147.01C20.01,147.01 17.98,143.95 17.98,140.94L17.98,25.14C17.98,21.39 20.74,17.91 25.59,17.91L36.14,17.91C38.91,17.91 39.76,19.22 40.02,21.61C40.36,24.62 41.73,25.71 44.63,25.71L63.9,25.71C66.67,25.71 68.08,24.76 68.61,21.61C69.01,19.22 69.71,17.91 72.81,17.91L85.11,17.91C90.11,17.91 92.81,20.16 92.81,24.62L92.81,140.72Z" style="fill:rgb(28,49,96);fill-rule:nonzero;"/>
    <g id="Chat">
        <path id="Chat1" serif:id="Chat" d="M73.71,45.32C50.09,45.32 31.72,61.86 31.72,80.98C31.72,87.22 33.41,93.66 36.03,98.01L29.15,116.95L51.97,109.71C58.71,113.84 65.62,115.61 73.71,115.61C95.41,115.61 112.99,99.86 112.99,80.84C112.99,62.23 96.45,45.32 73.71,45.32ZM52.71,87.22C47.44,86.31 44.85,80.1 48.81,76.07C50.09,74.76 51.82,74.16 53.69,74.16C58.46,74.16 60.71,77.88 60.01,81.63C59.31,85.11 56.61,87.88 52.71,87.22ZM73.93,87.51C68.66,86.61 67.07,80.91 70.22,76.95C71.63,75.01 74.12,74.31 76.48,74.71C80.93,75.49 82.72,79.01 81.63,82.9C80.65,86.13 77.43,88.1 73.93,87.51ZM94.71,87.51C89.45,86.61 87.86,80.91 91.01,76.95C92.42,75.01 94.91,74.31 97.27,74.71C101.72,75.49 103.51,79.01 102.42,82.9C101.44,86.13 98.21,88.1 94.71,87.51Z" style="fill:url(#_Linear1);fill-rule:nonzero;"/>
        <g transform="matrix(1.12723,0,0,2.03933,36.5644,-91.461)">
            <ellipse cx="52.993" cy="84.568" rx="6.21" ry="3.433" style="fill:rgb(235,235,235);"/>
        </g>
        <g transform="matrix(1.12723,0,0,2.03933,-5.9954,-91.191)">
            <ellipse cx="52.993" cy="84.568" rx="6.21" ry="3.433" style="fill:rgb(235,235,235);"/>
        </g>
        <g transform="matrix(1.12723,0,0,2.03933,15.3344,-91.461)">
            <ellipse cx="52.993" cy="84.568" rx="6.21" ry="3.433" style="fill:rgb(235,235,235);"/>
        </g>
    </g>
    <g id="Letras">
        <path d="M122.7,120.1L123.4,42.27C123.4,38.87 125.34,36.86 129.23,36.86L133.68,36.86C138.2,36.86 140.14,38.8 140.14,42.27L140.14,69.84C145.14,65.04 149.35,63.1 157.89,63.1C173.7,63.1 183.37,74.12 183.37,93.91C183.37,111.88 173.7,125.15 156.41,125.15C149.2,125.15 144.17,123.21 139.4,119.98L138.94,123.38L125.97,123.38C123.84,123.38 122.7,122.57 122.7,120.1ZM154.09,76.47C144.49,76.47 139.89,83.57 139.89,95.08L139.89,97.26C139.89,106.62 145.69,111.82 153.69,111.82C162.9,111.82 168.01,104.72 168.01,94.79C168.01,85 163.63,76.47 154.09,76.47Z" style="fill:rgb(29,49,97);fill-rule:nonzero;"/>
        <path d="M245.2,67.43L245.2,120.14C245.2,122.61 244.22,123.42 241.73,123.42L234.82,123.42C232.43,123.42 231.29,122.61 231.29,120.14L231.29,117.09C226.69,123.03 221.69,125.19 211.76,125.19C197.97,125.19 190.69,118.16 190.69,100.2L190.69,70.1C190.69,67.16 191.22,65.46 194.64,65.46L203.18,65.46C206.08,65.46 206.61,67.16 206.61,70.1L206.61,97.6C206.61,106.96 208.74,111.64 216.44,111.64C224.44,111.64 228.5,106.11 228.5,100.2L228.5,70.1C228.5,67.16 229.35,65.46 232.25,65.46L240.79,65.46C244.22,65.46 245.2,66.71 245.2,67.43Z" style="fill:rgb(29,49,97);fill-rule:nonzero;"/>
        <path d="M254.9,120.1L254.9,42.79C254.9,39.08 256.04,37.67 260,37.67L266.44,37.67C270.68,37.67 272.34,38.8 272.34,42.79L272.34,88.88L291.31,66.13C292.72,64.43 293.5,65.15 295.89,65.15L307.14,65.15C309.91,65.15 309.61,66.52 308.37,68.29L290.1,91.78L310.64,120.39C312.05,122.57 311.59,123.6 309.58,123.6L295.89,123.6C293.27,123.6 292.72,123.38 290.85,120.37L272.59,94.57L272.59,118.92C272.59,122.32 271.74,123.38 268.31,123.38L259.77,123.38C256.02,123.38 254.9,122.57 254.9,120.1Z" style="fill:rgb(29,49,97);fill-rule:nonzero;"/>
        <path d="M316.2,46.63C316.2,39.53 321.2,36.9 326.2,36.9C332.08,36.9 335.97,41.36 335.97,46.85C335.97,52.76 331.45,56.16 326.2,56.16C320.31,56.16 316.2,52.41 316.2,46.63ZM317.23,119.55L317.23,69.37C317.23,66.43 318.37,65.3 321.27,65.3L330.34,65.3C333.77,65.3 334.62,66.68 334.62,69.37L334.62,119.55C334.62,122.49 333.77,123.42 330.34,123.42L321.8,123.42C318.37,123.42 317.23,122.49 317.23,119.55Z" style="fill:url(#_Linear2);fill-rule:nonzero;"/>
        <path d="M404.2,78.91L404.2,142.91C404.2,146.62 402.79,147.75 398.83,147.75L394.38,147.75C390.42,147.75 389.01,146.62 389.01,142.91L389.01,118.81C383.66,123.27 378.95,125.14 370.48,125.14C354.67,125.14 343.65,114.11 343.65,95.61C344.69,76.8 352.95,63.26 375.15,63.26C384.68,63.26 393.96,66.12 398.96,70.01C402.71,72.77 404.2,75.16 404.2,78.91ZM376.29,76.95C366.15,76.95 360.96,82.41 360.96,94.83C360.96,105.13 365.49,111.79 374.77,111.79C383.46,111.79 388.46,104.11 388.46,94.83L388.46,88.62C388.46,81.01 384.8,76.95 376.29,76.95Z" style="fill:url(#_Linear3);fill-rule:nonzero;"/>
    </g>
    <defs>
        <linearGradient id="_Linear1" x1="0" y1="0" x2="1" y2="0" gradientUnits="userSpaceOnUse" gradientTransform="matrix(81.28,0,0,81.28,31.72,81.11)"><stop offset="0" style="stop-color:rgb(121,193,62);stop-opacity:1"/><stop offset="1" style="stop-color:rgb(107,181,54);stop-opacity:1"/></linearGradient>
        <linearGradient id="_Linear2" x1="0" y1="0" x2="1" y2="0" gradientUnits="userSpaceOnUse" gradientTransform="matrix(19.7,0,0,19.7,316.2,92.32)"><stop offset="0" style="stop-color:rgb(121,193,62);stop-opacity:1"/><stop offset="1" style="stop-color:rgb(107,181,54);stop-opacity:1"/></linearGradient>
        <linearGradient id="_Linear3" x1="0" y1="0" x2="1" y2="0" gradientUnits="userSpaceOnUse" gradientTransform="matrix(60.6,0,0,60.6,343.6,105.5)"><stop offset="0" style="stop-color:rgb(121,193,62);stop-opacity:1"/><stop offset="1" style="stop-color:rgb(107,181,54);stop-opacity:1"/></linearGradient>
    </defs>
</svg>
