<svg xmlns="http://www.w3.org/2000/svg" viewBox="0 0 120 176" fill="none">
  <path d="M85.98,7.9L24.81,7.9C15.66,7.9 10.08,16.84 10.08,22.67L10.08,152.97C10.08,162.56 16.77,168.65 25.81,168.65L85.69,168.65C95.62,168.65 100.72,161.91 100.72,154.81L100.72,22.71C100.72,14.11 93.98,7.94 85.98,7.94L85.98,7.9ZM49.94,18.28L58.77,18.28C60.85,18.28 61.14,18.28 61.14,19.72C61.14,20.98 60.29,21.39 58.77,21.39L50.77,21.39C49.21,21.39 48.31,20.91 48.31,19.72C48.31,18.53 48.63,18.28 49.94,18.28ZM61.96,157.78L48.31,157.78C46.22,157.78 45.21,157.1 45.21,155.56C45.21,154.02 46.06,153.32 47.61,153.32L61.96,153.32C63.75,153.32 64.42,154.06 64.42,155.56C64.42,157.06 63.51,157.78 61.96,157.78ZM92.81,140.72C92.81,145.85 89.16,147.01 86.12,147.01L23.76,147.01C20.01,147.01 17.98,143.95 17.98,140.94L17.98,25.14C17.98,21.39 20.74,17.91 25.59,17.91L36.14,17.91C38.91,17.91 39.76,19.22 40.02,21.61C40.36,24.62 41.73,25.71 44.63,25.71L63.9,25.71C66.67,25.71 68.08,24.76 68.61,21.61C69.01,19.22 69.71,17.91 72.81,17.91L85.11,17.91C90.11,17.91 92.81,20.16 92.81,24.62L92.81,140.72Z" style="fill:rgb(28,49,96);fill-rule:nonzero;"/>
  <defs>
    <linearGradient id="fav_grad" x1="0" y1="0" x2="1" y2="0" gradientUnits="userSpaceOnUse" gradientTransform="matrix(81.28,0,0,81.28,31.72,81.11)"><stop offset="0" style="stop-color:rgb(121,193,62);stop-opacity:1"/><stop offset="1" style="stop-color:rgb(107,181,54);stop-opacity:1"/></linearGradient>
  </defs>
  <path d="M73.71,45.32C50.09,45.32 31.72,61.86 31.72,80.98C31.72,87.22 33.41,93.66 36.03,98.01L29.15,116.95L51.97,109.71C58.71,113.84 65.62,115.61 73.71,115.61C95.41,115.61 112.99,99.86 112.99,80.84C112.99,62.23 96.45,45.32 73.71,45.32ZM52.71,87.22C47.44,86.31 44.85,80.1 48.81,76.07C50.09,74.76 51.82,74.16 53.69,74.16C58.46,74.16 60.71,77.88 60.01,81.63C59.31,85.11 56.61,87.88 52.71,87.22ZM73.93,87.51C68.66,86.61 67.07,80.91 70.22,76.95C71.63,75.01 74.12,74.31 76.48,74.71C80.93,75.49 82.72,79.01 81.63,82.9C80.65,86.13 77.43,88.1 73.93,87.51ZM94.71,87.51C89.45,86.61 87.86,80.91 91.01,76.95C92.42,75.01 94.91,74.31 97.27,74.71C101.72,75.49 103.51,79.01 102.42,82.9C101.44,86.13 98.21,88.1 94.71,87.51Z" style="fill:url(#fav_grad);fill-rule:nonzero;"/>
  <g transform="matrix(1.12723,0,0,2.03933,36.5644,-91.461)">
    <ellipse cx="52.993" cy="84.568" rx="6.21" ry="3.433" style="fill:rgb(235,235,235);"/>
  </g>
  <g transform="matrix(1.12723,0,0,2.03933,-5.9954,-91.191)">
    <ellipse cx="52.993" cy="84.568" rx="6.21" ry="3.433" style="fill:rgb(235,235,235);"/>
  </g>
  <g transform="matrix(1.12723,0,0,2.03933,15.3344,-91.461)">
    <ellipse cx="52.993" cy="84.568" rx="6.21" ry="3.433" style="fill:rgb(235,235,235);"/>
  </g>
</svg>
